<svg width="25.000000" height="25.000000" viewBox="0 0 25 25" fill="none" xmlns="http://www.w3.org/2000/svg" xmlns:xlink="http://www.w3.org/1999/xlink">
	<desc>
			Created with Pixso.
	</desc>
	<defs>
		<clipPath id="clip112_8316">
			<rect id="cart / 24 / Outline" width="25.000000" height="25.000000" fill="white" fill-opacity="0"/>
		</clipPath>
	</defs>
	<rect id="cart / 24 / Outline" width="25.000000" height="25.000000" fill="#FFFFFF" fill-opacity="0"/>
	<g clip-path="url(#clip112_8316)">
		<path id="Vector" d="M21.87 16.66L7.29 16.66C7.01 16.66 6.75 16.55 6.55 16.36C6.35 16.16 6.25 15.9 6.25 15.62C6.25 15.34 6.35 15.08 6.55 14.88C6.75 14.69 7.01 14.58 7.29 14.58L18.16 14.58C18.86 14.58 19.53 14.35 20.08 13.92C20.63 13.49 21.02 12.89 21.19 12.21L22.91 5.45C22.95 5.3 22.95 5.14 22.92 4.98C22.89 4.83 22.82 4.68 22.72 4.56C22.62 4.43 22.49 4.33 22.34 4.26C22.2 4.19 22.03 4.16 21.87 4.16L7.04 4.16C6.82 3.55 6.42 3.03 5.9 2.65C5.37 2.28 4.74 2.08 4.1 2.08L3.12 2.08C2.84 2.08 2.58 2.19 2.38 2.38C2.19 2.58 2.08 2.84 2.08 3.12C2.08 3.4 2.19 3.66 2.38 3.86C2.58 4.05 2.84 4.16 3.12 4.16L4.1 4.16C4.34 4.15 4.57 4.23 4.76 4.37C4.95 4.52 5.08 4.72 5.14 4.95L5.2 5.45L7.01 12.5C6.18 12.53 5.4 12.9 4.84 13.51C4.28 14.12 3.98 14.93 4.02 15.76C4.06 16.59 4.42 17.37 5.04 17.93C5.65 18.49 6.46 18.78 7.29 18.75L7.47 18.75C7.3 19.22 7.25 19.72 7.31 20.22C7.38 20.72 7.56 21.19 7.85 21.6C8.14 22.02 8.52 22.35 8.97 22.58C9.41 22.82 9.91 22.94 10.41 22.94C10.91 22.94 11.41 22.82 11.85 22.58C12.3 22.35 12.68 22.02 12.97 21.6C13.26 21.19 13.44 20.72 13.51 20.22C13.58 19.72 13.52 19.22 13.35 18.75L15.81 18.75C15.64 19.22 15.58 19.72 15.65 20.22C15.71 20.72 15.9 21.19 16.19 21.6C16.47 22.02 16.86 22.35 17.3 22.58C17.75 22.82 18.24 22.94 18.75 22.94C19.25 22.94 19.74 22.82 20.19 22.58C20.63 22.35 21.02 22.02 21.3 21.6C21.59 21.19 21.78 20.72 21.84 20.22C21.91 19.72 21.85 19.22 21.68 18.75L21.87 18.75C22.15 18.75 22.41 18.64 22.61 18.44C22.8 18.24 22.91 17.98 22.91 17.7C22.91 17.43 22.8 17.16 22.61 16.97C22.41 16.77 22.15 16.66 21.87 16.66ZM20.54 6.25L19.17 11.7C19.12 11.93 18.98 12.14 18.79 12.28C18.6 12.43 18.37 12.5 18.13 12.5L9.14 12.5L7.58 6.25L20.54 6.25ZM10.41 20.83C10.21 20.83 10 20.77 9.83 20.65C9.66 20.54 9.53 20.38 9.45 20.19C9.37 20 9.35 19.79 9.39 19.58C9.43 19.38 9.53 19.2 9.68 19.05C9.82 18.9 10.01 18.81 10.21 18.77C10.41 18.72 10.62 18.75 10.81 18.82C11 18.9 11.16 19.04 11.28 19.21C11.39 19.38 11.45 19.58 11.45 19.79C11.45 20.06 11.34 20.33 11.15 20.52C10.95 20.72 10.69 20.83 10.41 20.83ZM18.75 20.83C18.54 20.83 18.34 20.77 18.17 20.65C18 20.54 17.86 20.38 17.78 20.19C17.7 20 17.68 19.79 17.72 19.58C17.76 19.38 17.86 19.2 18.01 19.05C18.15 18.9 18.34 18.81 18.54 18.77C18.74 18.72 18.95 18.75 19.14 18.82C19.33 18.9 19.5 19.04 19.61 19.21C19.73 19.38 19.79 19.58 19.79 19.79C19.79 20.06 19.68 20.33 19.48 20.52C19.29 20.72 19.02 20.83 18.75 20.83Z" fill="#292A33" fill-opacity="1.000000" fill-rule="nonzero"/>
	</g>
</svg>
