<svg width="20.000000" height="20.000000" viewBox="0 0 20 20" fill="none" xmlns="http://www.w3.org/2000/svg" xmlns:xlink="http://www.w3.org/1999/xlink">
	<desc>
			Created with Pixso.
	</desc>
	<defs>
		<clipPath id="clip127_10971">
			<rect id="eye" width="20.000000" height="20.000000" fill="white" fill-opacity="0"/>
		</clipPath>
	</defs>
	<rect id="eye" width="20.000000" height="20.000000" fill="#FFFFFF" fill-opacity="0"/>
	<g clip-path="url(#clip127_10971)">
		<path id="Vector" d="M19.65 9.56C19.61 9.51 18.64 8.29 16.98 7.07C14.76 5.44 12.34 4.58 10 4.58C7.64 4.58 5.23 5.44 3.01 7.07C1.35 8.29 0.38 9.51 0.34 9.56L0 10L0.34 10.43C0.38 10.48 1.35 11.7 3.01 12.92C5.23 14.55 7.65 15.41 10 15.41C12.34 15.41 14.76 14.55 16.98 12.92C18.64 11.7 19.61 10.48 19.65 10.43L20 10L19.65 9.56ZM10 13.79C7.9 13.79 6.2 12.09 6.2 10C6.2 9.67 6.24 9.35 6.32 9.05L5.46 8.9C5.37 9.25 5.33 9.62 5.33 10C5.33 11.35 5.9 12.56 6.82 13.42C5.64 12.98 4.63 12.37 3.87 11.81C2.93 11.12 2.22 10.43 1.82 10C2.22 9.56 2.93 8.87 3.87 8.18C4.63 7.62 5.64 7.01 6.82 6.57L7.4 7.23C8.08 6.59 8.99 6.2 10 6.2C12.09 6.2 13.79 7.9 13.79 10C13.79 12.09 12.09 13.79 10 13.79ZM16.12 11.81C15.36 12.37 14.35 12.98 13.17 13.42C14.09 12.56 14.66 11.35 14.66 9.99C14.66 8.64 14.09 7.42 13.17 6.57C14.35 7.01 15.36 7.62 16.12 8.18C17.06 8.87 17.77 9.56 18.17 9.99C17.77 10.43 17.06 11.12 16.12 11.81Z" fill="#000000" fill-opacity="1.000000" fill-rule="nonzero"/>
		<path id="Vector" d="M7.58 9.26C7.51 9.49 7.47 9.74 7.47 10C7.47 11.39 8.6 12.52 9.99 12.52C11.39 12.52 12.52 11.39 12.52 10C12.52 8.6 11.39 7.47 9.99 7.47C9.32 7.47 8.7 7.74 8.25 8.18L9.49 9.58L7.58 9.26Z" fill="#000000" fill-opacity="1.000000" fill-rule="nonzero"/>
	</g>
</svg>
