<svg width="25.000000" height="25.000000" viewBox="0 0 25 25" fill="none" xmlns="http://www.w3.org/2000/svg" xmlns:xlink="http://www.w3.org/1999/xlink">
	<desc>
			Created with Pixso.
	</desc>
	<defs>
		<clipPath id="clip112_8320">
			<rect id="Magnifier / 24 / Outline" width="25.000000" height="25.000000" fill="white" fill-opacity="0"/>
		</clipPath>
	</defs>
	<rect id="Magnifier / 24 / Outline" width="25.000000" height="25.000000" fill="#FFFFFF" fill-opacity="0"/>
	<g clip-path="url(#clip112_8320)">
		<path id="Vector" d="M22.61 21.13L18.75 17.3C20.25 15.43 20.97 13.05 20.78 10.66C20.58 8.27 19.47 6.05 17.69 4.45C15.9 2.85 13.57 1.99 11.18 2.06C8.78 2.13 6.5 3.11 4.8 4.8C3.11 6.5 2.13 8.78 2.06 11.18C1.99 13.57 2.85 15.9 4.45 17.69C6.05 19.47 8.27 20.58 10.66 20.78C13.05 20.97 15.43 20.25 17.3 18.75L21.13 22.58C21.23 22.68 21.34 22.75 21.47 22.81C21.6 22.86 21.73 22.89 21.87 22.89C22.01 22.89 22.14 22.86 22.27 22.81C22.4 22.75 22.51 22.68 22.61 22.58C22.8 22.38 22.9 22.12 22.9 21.85C22.9 21.58 22.8 21.32 22.61 21.13ZM11.45 18.75C10.01 18.75 8.6 18.32 7.4 17.52C6.2 16.71 5.27 15.58 4.72 14.24C4.16 12.91 4.02 11.45 4.3 10.03C4.58 8.62 5.28 7.32 6.3 6.3C7.32 5.28 8.62 4.58 10.03 4.3C11.45 4.02 12.91 4.16 14.24 4.72C15.58 5.27 16.71 6.2 17.52 7.4C18.32 8.6 18.75 10.01 18.75 11.45C18.75 13.39 17.98 15.24 16.61 16.61C15.24 17.98 13.39 18.75 11.45 18.75Z" fill="#292A33" fill-opacity="1.000000" fill-rule="nonzero"/>
	</g>
</svg>
