<svg width="20.000000" height="20.000000" viewBox="0 0 20 20" fill="none" xmlns="http://www.w3.org/2000/svg" xmlns:xlink="http://www.w3.org/1999/xlink">
	<desc>
			Created with Pixso.
	</desc>
	<defs/>
	<path id="Vector" d="M13.36 10.23C14.38 9.43 15.13 8.33 15.49 7.08C15.86 5.84 15.83 4.51 15.4 3.28C14.98 2.05 14.18 0.98 13.12 0.23C12.06 -0.52 10.79 -0.93 9.5 -0.93C8.2 -0.93 6.93 -0.52 5.87 0.23C4.81 0.98 4.01 2.05 3.59 3.28C3.16 4.51 3.13 5.84 3.5 7.08C3.86 8.33 4.61 9.43 5.63 10.23C3.88 10.94 2.35 12.1 1.21 13.6C0.07 15.1 -0.64 16.88 -0.85 18.76C-0.86 18.89 -0.85 19.03 -0.81 19.16C-0.78 19.29 -0.71 19.42 -0.62 19.53C-0.45 19.74 -0.2 19.88 0.08 19.91C0.35 19.94 0.63 19.86 0.85 19.69C1.07 19.51 1.2 19.26 1.23 18.98C1.46 16.95 2.43 15.07 3.96 13.7C5.49 12.34 7.47 11.58 9.52 11.58C11.56 11.58 13.54 12.34 15.07 13.7C16.6 15.07 17.57 16.95 17.8 18.98C17.83 19.24 17.95 19.48 18.14 19.65C18.33 19.82 18.58 19.91 18.84 19.91L18.95 19.91C19.23 19.88 19.48 19.74 19.65 19.53C19.82 19.31 19.9 19.04 19.87 18.77C19.66 16.89 18.94 15.1 17.8 13.6C16.65 12.09 15.12 10.93 13.36 10.23ZM9.5 9.5C8.67 9.5 7.87 9.25 7.18 8.79C6.49 8.33 5.96 7.68 5.65 6.92C5.33 6.16 5.25 5.32 5.41 4.52C5.57 3.71 5.97 2.96 6.55 2.38C7.13 1.8 7.87 1.4 8.68 1.24C9.49 1.08 10.33 1.16 11.09 1.48C11.85 1.79 12.5 2.33 12.96 3.01C13.42 3.7 13.66 4.5 13.66 5.33C13.66 6.43 13.22 7.49 12.44 8.27C11.66 9.06 10.6 9.5 9.5 9.5Z" fill="#292A33" fill-opacity="1.000000" fill-rule="nonzero"/>
</svg>
