<svg width="17.000000" height="17.000000" viewBox="0 0 17 17" fill="none" xmlns="http://www.w3.org/2000/svg" xmlns:xlink="http://www.w3.org/1999/xlink">
	<desc>
			Created with Pixso.
	</desc>
	<defs/>
	<path id="Vector" d="M16.85 4.21C16.34 1.64 14.51 -0.02 12.15 -0.02C10.83 -0.02 9.41 0.52 8.01 1.55C6.6 0.49 5.17 -0.05 3.84 -0.05C1.48 -0.05 -0.36 1.62 -0.86 4.23C-1.6 8.09 0.79 13.22 7.78 16.01C7.86 16.04 7.93 16.06 8.01 16.06C8.09 16.06 8.17 16.04 8.24 16.01C15.22 13.16 17.59 8.04 16.85 4.21ZM8.01 14.74C1.87 12.2 -0.25 7.76 0.38 4.46C0.75 2.49 2.12 1.2 3.84 1.2C5 1.2 6.31 1.76 7.61 2.83C7.84 3.02 8.17 3.02 8.4 2.83C9.7 1.79 10.99 1.25 12.15 1.25C13.87 1.25 15.22 2.51 15.61 4.46C16.24 7.73 14.13 12.15 8.01 14.74Z" fill="#000000" fill-opacity="1.000000" fill-rule="nonzero"/>
</svg>
